<?xml version="1.0" encoding="utf-8"?>
<!-- Svg Vector Icons : http://www.onlinewebfonts.com/icon -->
<!DOCTYPE svg PUBLIC "-//W3C//DTD SVG 1.1//EN" "http://www.w3.org/Graphics/SVG/1.1/DTD/svg11.dtd">
<svg version="1.1" xmlns="http://www.w3.org/2000/svg" xmlns:xlink="http://www.w3.org/1999/xlink" x="0px" y="0px" viewBox="0 0 1000 1000" enable-background="new 0 0 1000 1000" xml:space="preserve">
<metadata> Svg Vector Icons : http://www.onlinewebfonts.com/icon </metadata>
<g><path d="M287.8,607.6L159.8,777.9l108.6-19.8L311.5,871L440,656.1l43.2,17.3L291,976.8l-53.4-165.4L60,836.4l193.2-268.8L287.8,607.6L287.8,607.6z"/><path d="M602.6,688l102.2,187l26.9-107l120.6,7.3L709.7,569.5l33.6-32.2L940,837.7l-172.7-19.8L716.7,990L551.9,702.9L602.6,688L602.6,688z"/><path d="M511.4,10C318,10,161.1,166.8,161.1,360.3c0,193.4,156.8,350.2,350.3,350.2c193.4,0,350.2-156.8,350.2-350.2C861.6,166.9,704.8,10,511.4,10L511.4,10z M511.4,650.3c-160.2,0-290.1-129.9-290.1-290c0-160.2,129.9-290.1,290.1-290.1c160.2,0,290.1,129.9,290.1,290.1C801.4,520.4,671.5,650.3,511.4,650.3z"/><path d="M380.2,421.4c1.5-1.4,2.4-3.4,2.4-6c0-2.4-0.8-4.3-2.4-5.7c-1.6-1.4-4.4-2.1-8.3-2.1h-11.4v15.9h11.3C375.8,423.5,378.6,422.8,380.2,421.4L380.2,421.4z"/><path d="M373.6,439.5h-13.2v17h13.2c4.5,0,7.6-0.8,9.4-2.4c1.8-1.6,2.7-3.7,2.7-6.4c0-2.5-0.9-4.5-2.7-6C381.3,440.2,378.2,439.5,373.6,439.5L373.6,439.5z"/><path d="M511.4,113.9c-136,0-246.3,110.3-246.3,246.3c0,136,110.3,246.3,246.3,246.3c136,0,246.3-110.3,246.3-246.3S647.4,113.9,511.4,113.9z M612.2,277.1l6-18.7l6,18.7l19.6,0L628,288.6l6.1,18.7l-15.8-11.6l-15.9,11.6l6.1-18.7l-15.9-11.5L612.2,277.1L612.2,277.1z M500.2,230.3l12.7-39.4l12.7,39.4l41.4-0.1l-33.6,24.3l12.9,39.4L513,269.5l-33.5,24.4l12.9-39.4l-33.6-24.3L500.2,230.3L500.2,230.3z M403.7,277.1l6-18.7l6,18.7l19.6,0l-15.9,11.5l6.1,18.7l-15.8-11.6l-15.9,11.6l6.1-18.7l-15.9-11.5L403.7,277.1L403.7,277.1z M408.8,462.3c-2,3.5-4.8,6.2-8.3,8.2c-2.2,1.2-5.4,2.2-9.9,2.7c-5.8,0.8-9.7,1.2-11.6,1.2h-44.7v-83.8h48.5c8.1,0,14.3,2,18.6,6c4.3,4,6.5,8.9,6.5,14.8c0,5-1.5,9.2-4.6,12.8c-2.1,2.4-5.1,4.2-9,5.6c6,1.4,10.4,3.9,13.3,7.5c2.8,3.5,4.3,8,4.3,13.3C411.8,455,410.8,458.9,408.8,462.3L408.8,462.3z M503.8,474.5h-70.7v-83.8h69.4v17.9h-43.5v13.3h40.3v17.1h-40.3v16.5h44.7L503.8,474.5L503.8,474.5z M592.6,462c-2.9,4.6-7.1,8-12.5,10.4c-5.3,2.4-12.1,3.5-20.2,3.5c-14.2,0-24.1-2.7-29.6-8.2c-5.5-5.5-8.6-12.5-9.3-20.9l24.6-1.5c0.5,4,1.6,7,3.2,9.1c2.7,3.4,6.5,5.1,11.4,5.1c3.7,0,6.5-0.9,8.5-2.6c2-1.7,3-3.7,3-6c0-2.2-0.9-4.1-2.9-5.8c-1.9-1.7-6.3-3.3-13.3-4.9c-11.4-2.6-19.5-5.9-24.3-10.2c-4.9-4.2-7.3-9.6-7.3-16.2c0-4.3,1.2-8.4,3.7-12.2s6.2-6.8,11.3-9c5-2.2,11.9-3.3,20.6-3.3c10.7,0,18.9,2,24.5,6c5.6,4,9,10.3,10,19l-24.4,1.4c-0.6-3.8-2-6.5-4.1-8.2c-2.1-1.7-4.9-2.6-8.6-2.6c-3,0-5.3,0.6-6.8,1.9c-1.5,1.3-2.3,2.9-2.3,4.7c0,1.3,0.6,2.5,1.9,3.6c1.2,1.1,4.1,2.1,8.7,3.1c11.3,2.4,19.4,4.9,24.3,7.4c4.9,2.5,8.5,5.6,10.7,9.3c2.2,3.7,3.3,7.8,3.3,12.4c0,5.4-1.5,10.4-4.5,14.9L592.6,462z M690.7,411.3h-26.4v63.1h-25.9v-63.1H612v-20.7h78.7L690.7,411.3L690.7,411.3z M320.8,353.4v-13h381v13H320.8z"/></g>
</svg>